# ProBuilder 4.2.3
# https://unity3d.com/unity/features/worldbuilding/probuilder
# 2/6/2020 10:32:50 AM

mtllib ./midtwoarg.mtl
o midtwoarg

g Cube
v 0 0 0
v -1 0 0
v 0 1 0
v -1 1 0
v -1.333333 0 0
v -1.333333 0 -1
v -1.333333 0.25 -1
v -1.333333 0.5 -1
v -1.333333 0.75 -1
v -1.333333 1 -1
v -1.333333 1 0
v -0.5 0 -1
v -0.5 0.25 -1
v -0.75 0.25 -1
v -0.75 0 -1
v -0.5 0.5 -1
v -0.75 0.5 -1
v -1 0.25 -1
v -1 0 -1
v 0 0 -1
v 0 0.25 -1
v -0.25 0.25 -1
v -0.25 0 -1
v 0 0.5 -1
v 0 0.75 -1
v -0.25 0.75 -1
v 0 1 -1
v -0.25 1 -1
v -0.5 1 -1
v -0.5 0.75 -1
v -0.75 0.75 -1
v -0.75 1 -1
v -1 1 -1
v -1 0.75 -1

vt 0 0
vt -1 0
vt 0 1
vt -1 1
vt -1 0.25
vt -1 0.5
vt -1 0.75
vt 0.5 0
vt 0.5 0.25
vt 0.75 0.25
vt 0.75 0
vt 0.5 0.5
vt 0.75 0.5
vt 1 0.25
vt 1 0
vt 0 0.25
vt 0.25 0.25
vt 0.25 0
vt 0 0.5
vt 0 0.75
vt 0.25 0.75
vt 0.25 1
vt 0.5 1
vt 0.5 0.75
vt 0.75 0.75
vt 0.75 1
vt 1 1
vt 1 0.75
vt 1 0.5
vt 0.5 -1
vt 0.25 -1
vt 0 -1
vt 1 -1
vt 0.75 -1
vt -0.25 -1
vt -0.5 -1
vt -0.75 -1
vt -1 -1
vt -1.333333 0
vt -1.333333 -1
vt 1.333333 0
vt 1.333333 0.25
vt 1.333333 0.5
vt -1.333333 1
vt 1.333333 0.75
vt 1.333333 1
vt 1.333333 -1

vn 0.5773503 -0.5773503 0.5773503
vn 0 -0.7071068 0.7071068
vn 0.5773503 0.5773503 0.5773503
vn 0 0.7071068 0.7071068
vn -1 0 0
vn 0 -0.4472136 -0.8944272
vn 0 0 -1
vn 0 -0.7071068 -0.7071068
vn 0.5773503 -0.5773503 -0.5773503
vn 0.5547002 0 -0.8320503
vn 0.8944272 0 -0.4472136
vn 0.4472136 0 -0.8944272
vn 0.5773503 0.5773503 -0.5773503
vn 0 0.4472136 -0.8944272
vn 0 0.7071068 -0.7071068
vn 0 -1 0
vn 0 0 -0.5
vn 0 0 0
vn 0 0 1
vn 0 1 0

usemtl ProBuilderDefault
f 7/5/5 6/2/5 5/1/5
f 8/6/5 7/5/5 5/1/5
f 5/1/5 11/3/5 8/6/5
f 11/3/5 9/7/5 8/6/5
f 11/3/5 10/4/5 9/7/5
f 25/28/12 27/27/13 3/3/3
f 24/29/11 25/28/12 3/3/3
f 24/29/11 3/3/3 1/1/1
f 1/1/1 21/14/10 24/29/11
f 1/1/1 20/15/9 21/14/10
f 32/34/14 33/33/15 4/15/4
f 29/30/14 32/34/14 4/15/4
f 3/1/3 27/32/13 28/31/14
f 3/1/3 28/31/14 29/30/14
f 4/15/4 3/1/3 29/30/14
f 12/36/6 1/1/1 2/2/2
f 12/36/6 23/35/6 1/1/1
f 23/35/6 20/32/9 1/1/1
f 2/2/2 15/37/6 12/36/6
f 2/2/2 19/38/8 15/37/6
f 4/4/4 2/2/2 1/1/1
f 1/1/1 3/3/3 4/4/4
f 14/10/7 13/9/7 12/8/6
f 12/8/6 15/11/6 14/10/7
f 17/13/7 16/12/7 13/9/7
f 13/9/7 14/10/7 17/13/7
f 18/14/7 14/10/7 15/11/6
f 15/11/6 19/15/8 18/14/7
f 22/17/7 21/16/10 20/1/9
f 20/1/9 23/18/6 22/17/7
f 24/19/7 24/19/11 21/16/10
f 21/16/10 22/17/7 24/19/7
f 13/9/7 22/17/7 23/18/6
f 23/18/6 12/8/6 13/9/7
f 26/21/7 25/20/12 24/19/11
f 24/19/11 24/19/7 26/21/7
f 28/22/14 27/3/13 25/20/12
f 25/20/12 26/21/7 28/22/14
f 29/23/14 28/22/14 26/21/7
f 26/21/7 30/24/7 29/23/14
f 31/25/7 30/24/7 16/12/7
f 16/12/7 17/13/7 31/25/7
f 32/26/14 29/23/14 30/24/7
f 30/24/7 31/25/7 32/26/14
f 33/27/15 32/26/14 31/25/7
f 31/25/7 34/28/7 33/27/15
f 6/40/16 19/38/16 2/2/16
f 2/2/16 5/39/16 6/40/16
f 7/42/7 18/14/7 19/15/7
f 19/15/7 6/41/7 7/42/7
f 8/43/18 8/43/17 18/14/7
f 18/14/7 7/42/17 8/43/18
f 5/39/19 2/2/19 4/4/19
f 4/4/19 11/44/19 5/39/19
f 9/1/7 34/1/17 8/1/18
f 8/1/18 8/1/17 9/1/7
f 10/46/7 33/27/7 34/28/7
f 34/28/7 9/45/7 10/46/7
f 11/41/20 4/15/20 33/33/20
f 33/33/20 10/47/20 11/41/20

