# Blender v2.93.6 Release Candidate OBJ File: ''
# www.blender.org
mtllib top.mtl
o Cube_Cube.001
v -0.500000 -0.250000 0.212500
v -0.500000 -0.212500 0.250000
v -0.500000 -0.249060 0.220845
v -0.500000 -0.246286 0.228771
v -0.500000 -0.241819 0.235881
v -0.500000 -0.235881 0.241819
v -0.500000 -0.228771 0.246286
v -0.500000 -0.220845 0.249060
v 0.500000 -0.212500 0.250000
v 0.500000 -0.250000 0.212500
v 0.500000 -0.220845 0.249060
v 0.500000 -0.228771 0.246286
v 0.500000 -0.235881 0.241819
v 0.500000 -0.241819 0.235881
v 0.500000 -0.246286 0.228771
v 0.500000 -0.249060 0.220845
v -0.500000 -0.212500 -0.250000
v -0.500000 -0.250000 -0.212500
v -0.500000 -0.220845 -0.249060
v -0.500000 -0.228771 -0.246286
v -0.500000 -0.235881 -0.241819
v -0.500000 -0.241819 -0.235881
v -0.500000 -0.246286 -0.228771
v -0.500000 -0.249060 -0.220845
v 0.500000 -0.250000 -0.212500
v 0.500000 -0.212500 -0.250000
v 0.500000 -0.249060 -0.220845
v 0.500000 -0.246286 -0.228771
v 0.500000 -0.241819 -0.235881
v 0.500000 -0.235881 -0.241819
v 0.500000 -0.228771 -0.246286
v 0.500000 -0.220845 -0.249060
v -0.500000 0.212500 0.250000
v -0.500000 0.250000 0.212500
v -0.500000 0.220845 0.249060
v -0.500000 0.228771 0.246286
v -0.500000 0.235881 0.241819
v -0.500000 0.241819 0.235881
v -0.500000 0.246286 0.228771
v -0.500000 0.249060 0.220845
v 0.500000 0.250000 0.212500
v 0.500000 0.212500 0.250000
v 0.500000 0.249060 0.220845
v 0.500000 0.246286 0.228771
v 0.500000 0.241819 0.235881
v 0.500000 0.235881 0.241819
v 0.500000 0.228771 0.246286
v 0.500000 0.220845 0.249060
v -0.500000 0.250000 -0.212500
v -0.500000 0.212500 -0.250000
v -0.500000 0.249060 -0.220845
v -0.500000 0.246286 -0.228771
v -0.500000 0.241819 -0.235881
v -0.500000 0.235881 -0.241819
v -0.500000 0.228771 -0.246286
v -0.500000 0.220845 -0.249060
v 0.500000 0.212500 -0.250000
v 0.500000 0.250000 -0.212500
v 0.500000 0.220845 -0.249060
v 0.500000 0.228771 -0.246286
v 0.500000 0.235881 -0.241819
v 0.500000 0.241819 -0.235881
v 0.500000 0.246286 -0.228771
v 0.500000 0.249060 -0.220845
vt 0.643750 0.500000
vt 0.856250 0.500000
vt 0.856250 0.750000
vt 0.643750 0.750000
vt 0.375000 0.268750
vt 0.375470 0.264578
vt 0.376857 0.260615
vt 0.379091 0.257060
vt 0.382060 0.254091
vt 0.385615 0.251857
vt 0.389578 0.250470
vt 0.393750 0.250000
vt 0.606250 0.250000
vt 0.610422 0.250470
vt 0.614385 0.251857
vt 0.617940 0.254091
vt 0.620909 0.257060
vt 0.623143 0.260615
vt 0.624530 0.264578
vt 0.625000 0.268750
vt 0.625000 0.481250
vt 0.624530 0.485422
vt 0.623143 0.489385
vt 0.620909 0.492940
vt 0.617940 0.495909
vt 0.614385 0.498143
vt 0.610422 0.499530
vt 0.606250 0.500000
vt 0.393750 0.500000
vt 0.389578 0.499530
vt 0.385615 0.498143
vt 0.382060 0.495909
vt 0.379091 0.492940
vt 0.376857 0.489385
vt 0.375470 0.485422
vt 0.375000 0.481250
vt 0.375000 0.768750
vt 0.375470 0.764578
vt 0.376857 0.760615
vt 0.379091 0.757059
vt 0.382060 0.754091
vt 0.385615 0.751857
vt 0.389578 0.750470
vt 0.393750 0.750000
vt 0.606250 0.750000
vt 0.610422 0.750470
vt 0.614385 0.751857
vt 0.617940 0.754091
vt 0.620909 0.757060
vt 0.623143 0.760615
vt 0.624530 0.764578
vt 0.625000 0.768750
vt 0.625000 0.981250
vt 0.624530 0.985422
vt 0.623143 0.989385
vt 0.620909 0.992940
vt 0.617940 0.995909
vt 0.614385 0.998143
vt 0.610422 0.999530
vt 0.606250 1.000000
vt 0.393750 1.000000
vt 0.389578 0.999530
vt 0.385615 0.998143
vt 0.382059 0.995909
vt 0.379091 0.992940
vt 0.376857 0.989385
vt 0.375470 0.985422
vt 0.375000 0.981250
vt 0.639578 0.750000
vt 0.639578 0.500000
vt 0.635615 0.750000
vt 0.635615 0.500000
vt 0.632060 0.750000
vt 0.632060 0.500000
vt 0.617940 0.750000
vt 0.617940 0.500000
vt 0.614385 0.750000
vt 0.614385 0.500000
vt 0.610422 0.750000
vt 0.610422 0.500000
vt 0.356250 0.750000
vt 0.356250 0.500000
vt 0.360422 0.500000
vt 0.360422 0.750000
vt 0.364385 0.500000
vt 0.364385 0.750000
vt 0.367940 0.500000
vt 0.367940 0.750000
vt 0.382060 0.500000
vt 0.382060 0.750000
vt 0.385615 0.500000
vt 0.385615 0.750000
vt 0.389578 0.500000
vt 0.389578 0.750000
vt 0.393750 0.500000
vt 0.860422 0.500000
vt 0.860422 0.750000
vt 0.864385 0.500000
vt 0.864385 0.750000
vt 0.867940 0.500000
vt 0.867940 0.750000
vt 0.625000 0.000000
vt 0.625000 0.250000
vt 0.617940 0.250000
vt 0.617940 0.000000
vt 0.614385 0.250000
vt 0.614385 0.000000
vt 0.610422 0.250000
vt 0.610422 0.000000
vt 0.606250 0.000000
vt 0.393750 0.000000
vt 0.143750 0.500000
vt 0.143750 0.750000
vt 0.139578 0.750000
vt 0.139578 0.500000
vt 0.135615 0.750000
vt 0.135615 0.500000
vt 0.132060 0.750000
vt 0.132060 0.500000
vt 0.125000 0.750000
vt 0.125000 0.500000
vt 0.382060 0.250000
vt 0.382060 0.000000
vt 0.385615 0.000000
vt 0.385615 0.250000
vt 0.389578 0.000000
vt 0.389578 0.250000
vn 0.0000 0.0000 1.0000
vn 1.0000 0.0000 0.0000
vn -1.0000 -0.0000 0.0000
vn 0.0000 -0.1120 0.9937
vn 0.0000 -0.3303 0.9439
vn 0.0000 -0.5320 0.8467
vn 0.0000 -0.7071 0.7071
vn 0.0000 -0.8467 0.5320
vn 0.0000 -0.9439 0.3303
vn 0.0000 -0.9937 0.1120
vn 0.0000 -0.1120 -0.9937
vn 0.0000 -0.3303 -0.9439
vn 0.0000 -0.5320 -0.8467
vn 0.0000 -0.7071 -0.7071
vn 0.0000 -0.8467 -0.5320
vn 0.0000 -0.9439 -0.3303
vn 0.0000 -0.9937 -0.1120
vn 0.0000 -1.0000 0.0000
vn 0.0000 0.1120 0.9937
vn 0.0000 0.3303 0.9439
vn 0.0000 0.5320 0.8467
vn 0.0000 0.7071 0.7071
vn 0.0000 0.8467 0.5320
vn 0.0000 0.9439 0.3303
vn 0.0000 0.9937 0.1120
vn 0.0000 1.0000 0.0000
vn 0.0000 0.1120 -0.9937
vn 0.0000 0.3303 -0.9439
vn 0.0000 0.5320 -0.8467
vn 0.0000 0.7071 -0.7071
vn 0.0000 0.8467 -0.5320
vn 0.0000 0.9439 -0.3303
vn 0.0000 0.9937 -0.1120
vn 0.0000 0.0000 -1.0000
usemtl None
s off
f 9/1/1 42/2/1 33/3/1 2/4/1
f 57/5/2 59/6/2 60/7/2 61/8/2 62/9/2 63/10/2 64/11/2 58/12/2 41/13/2 43/14/2 44/15/2 45/16/2 46/17/2 47/18/2 48/19/2 42/20/2 9/21/2 11/22/2 12/23/2 13/24/2 14/25/2 15/26/2 16/27/2 10/28/2 25/29/2 27/30/2 28/31/2 29/32/2 30/33/2 31/34/2 32/35/2 26/36/2
f 17/37/3 19/38/3 20/39/3 21/40/3 22/41/3 23/42/3 24/43/3 18/44/3 1/45/3 3/46/3 4/47/3 5/48/3 6/49/3 7/50/3 8/51/3 2/52/3 33/53/3 35/54/3 36/55/3 37/56/3 38/57/3 39/58/3 40/59/3 34/60/3 49/61/3 51/62/3 52/63/3 53/64/3 54/65/3 55/66/3 56/67/3 50/68/3
f 9/1/4 2/4/4 8/69/4 11/70/4
f 11/70/5 8/69/5 7/71/5 12/72/5
f 12/72/6 7/71/6 6/73/6 13/74/6
f 13/74/7 6/73/7 5/75/7 14/76/7
f 14/76/8 5/75/8 4/77/8 15/78/8
f 15/78/9 4/77/9 3/79/9 16/80/9
f 16/80/10 3/79/10 1/45/10 10/28/10
f 17/81/11 26/82/11 32/83/11 19/84/11
f 19/84/12 32/83/12 31/85/12 20/86/12
f 20/86/13 31/85/13 30/87/13 21/88/13
f 21/88/14 30/87/14 29/89/14 22/90/14
f 22/90/15 29/89/15 28/91/15 23/92/15
f 23/92/16 28/91/16 27/93/16 24/94/16
f 24/94/17 27/93/17 25/95/17 18/44/17
f 25/95/18 10/28/18 1/45/18 18/44/18
f 33/3/19 42/2/19 48/96/19 35/97/19
f 35/97/20 48/96/20 47/98/20 36/99/20
f 36/99/21 47/98/21 46/100/21 37/101/21
f 37/102/22 46/103/22 45/104/22 38/105/22
f 38/105/23 45/104/23 44/106/23 39/107/23
f 39/107/24 44/106/24 43/108/24 40/109/24
f 40/109/25 43/108/25 41/13/25 34/110/25
f 49/111/26 34/110/26 41/13/26 58/12/26
f 57/112/27 50/113/27 56/114/27 59/115/27
f 59/115/28 56/114/28 55/116/28 60/117/28
f 60/117/29 55/116/29 54/118/29 61/119/29
f 61/119/30 54/118/30 53/120/30 62/121/30
f 62/122/31 53/123/31 52/124/31 63/125/31
f 63/125/32 52/124/32 51/126/32 64/127/32
f 64/127/33 51/126/33 49/111/33 58/12/33
f 57/112/34 26/82/34 17/81/34 50/113/34
